<?xml version="1.0" encoding="UTF-8" standalone="no"?>
<!DOCTYPE svg PUBLIC "-//W3C//DTD SVG 1.1//EN"
 "http://www.w3.org/Graphics/SVG/1.1/DTD/svg11.dtd">
<!-- Generated by graphviz version 12.1.1 (20240910.0053)
 -->
<!-- Title: INFRA Pages: 1 -->
<svg width="1016pt" height="296pt"
 viewBox="0.00 0.00 1015.75 296.00" xmlns="http://www.w3.org/2000/svg" xmlns:xlink="http://www.w3.org/1999/xlink">
<g id="graph0" class="graph" transform="scale(1 1) rotate(0) translate(4 292)">
<title>INFRA</title>
<polygon fill="white" stroke="none" points="-4,4 -4,-292 1011.75,-292 1011.75,4 -4,4"/>
<!-- NotificationEmailParam -->
<g id="node1" class="node">
<title>NotificationEmailParam</title>
<path fill="#e6e6e6" stroke="black" stroke-width="2" d="M160.53,-180C160.53,-180 16.07,-180 16.07,-180 10.07,-180 4.07,-174 4.07,-168 4.07,-168 4.07,-120 4.07,-120 4.07,-114 10.07,-108 16.07,-108 16.07,-108 160.53,-108 160.53,-108 166.53,-108 172.53,-114 172.53,-120 172.53,-120 172.53,-168 172.53,-168 172.53,-174 166.53,-180 160.53,-180"/>
<text text-anchor="middle" x="88.3" y="-148.2" font-family="Arial" font-size="14.00">NotificationEmailParam</text>
<text text-anchor="middle" x="88.3" y="-131.4" font-family="Arial" font-size="14.00">(AWS::SSM::Parameter)</text>
</g>
<!-- MonthlyQuotaParam -->
<g id="node2" class="node">
<title>MonthlyQuotaParam</title>
<path fill="#e6e6e6" stroke="black" stroke-width="2" d="M381.53,-288C381.53,-288 237.07,-288 237.07,-288 231.07,-288 225.07,-282 225.07,-276 225.07,-276 225.07,-228 225.07,-228 225.07,-222 231.07,-216 237.07,-216 237.07,-216 381.53,-216 381.53,-216 387.53,-216 393.53,-222 393.53,-228 393.53,-228 393.53,-276 393.53,-276 393.53,-282 387.53,-288 381.53,-288"/>
<text text-anchor="middle" x="309.3" y="-256.2" font-family="Arial" font-size="14.00">MonthlyQuotaParam</text>
<text text-anchor="middle" x="309.3" y="-239.4" font-family="Arial" font-size="14.00">(AWS::SSM::Parameter)</text>
</g>
<!-- NotificationTopic -->
<g id="node3" class="node">
<title>NotificationTopic</title>
<path fill="#cce0ac" stroke="black" stroke-width="2" d="M314.2,-180C314.2,-180 202.4,-180 202.4,-180 196.4,-180 190.4,-174 190.4,-168 190.4,-168 190.4,-120 190.4,-120 190.4,-114 196.4,-108 202.4,-108 202.4,-108 314.2,-108 314.2,-108 320.2,-108 326.2,-114 326.2,-120 326.2,-120 326.2,-168 326.2,-168 326.2,-174 320.2,-180 314.2,-180"/>
<text text-anchor="middle" x="258.3" y="-148.2" font-family="Arial" font-size="14.00">NotificationTopic</text>
<text text-anchor="middle" x="258.3" y="-131.4" font-family="Arial" font-size="14.00">(AWS::SNS::Topic)</text>
</g>
<!-- NotificationSubscription -->
<g id="node4" class="node">
<title>NotificationSubscription</title>
<path fill="#cce0ac" stroke="black" stroke-width="2" d="M166.6,-288C166.6,-288 12,-288 12,-288 6,-288 0,-282 0,-276 0,-276 0,-228 0,-228 0,-222 6,-216 12,-216 12,-216 166.6,-216 166.6,-216 172.6,-216 178.6,-222 178.6,-228 178.6,-228 178.6,-276 178.6,-276 178.6,-282 172.6,-288 166.6,-288"/>
<text text-anchor="middle" x="89.3" y="-256.2" font-family="Arial" font-size="14.00">NotificationSubscription</text>
<text text-anchor="middle" x="89.3" y="-239.4" font-family="Arial" font-size="14.00">(AWS::SNS::Subscription)</text>
</g>
<!-- NotificationSubscription&#45;&gt;NotificationEmailParam -->
<g id="edge2" class="edge">
<title>NotificationSubscription&#45;&gt;NotificationEmailParam</title>
<path fill="none" stroke="black" d="M88.97,-215.7C88.89,-207.93 88.81,-199.57 88.74,-191.43"/>
<polygon fill="black" stroke="black" points="92.24,-191.62 88.65,-181.66 85.24,-191.69 92.24,-191.62"/>
</g>
<!-- NotificationSubscription&#45;&gt;NotificationTopic -->
<g id="edge1" class="edge">
<title>NotificationSubscription&#45;&gt;NotificationTopic</title>
<path fill="none" stroke="black" d="M145.57,-215.7C160.6,-206.28 176.98,-196.01 192.47,-186.29"/>
<polygon fill="black" stroke="black" points="194.09,-189.41 200.7,-181.13 190.37,-183.48 194.09,-189.41"/>
</g>
<!-- S3UsageTrail -->
<g id="node5" class="node">
<title>S3UsageTrail</title>
<path fill="#e6e6e6" stroke="black" stroke-width="2" d="M577.2,-288C577.2,-288 437.4,-288 437.4,-288 431.4,-288 425.4,-282 425.4,-276 425.4,-276 425.4,-228 425.4,-228 425.4,-222 431.4,-216 437.4,-216 437.4,-216 577.2,-216 577.2,-216 583.2,-216 589.2,-222 589.2,-228 589.2,-228 589.2,-276 589.2,-276 589.2,-282 583.2,-288 577.2,-288"/>
<text text-anchor="middle" x="507.3" y="-256.2" font-family="Arial" font-size="14.00">S3UsageTrail</text>
<text text-anchor="middle" x="507.3" y="-239.4" font-family="Arial" font-size="14.00">(AWS::CloudTrail::Trail)</text>
</g>
<!-- CloudTrailBucket -->
<g id="node6" class="node">
<title>CloudTrailBucket</title>
<path fill="#fff5cd" stroke="black" stroke-width="2" d="M588.65,-65.45C588.65,-69.07 558.91,-72 522.3,-72 485.69,-72 455.95,-69.07 455.95,-65.45 455.95,-65.45 455.95,-6.55 455.95,-6.55 455.95,-2.93 485.69,0 522.3,0 558.91,0 588.65,-2.93 588.65,-6.55 588.65,-6.55 588.65,-65.45 588.65,-65.45"/>
<path fill="none" stroke="black" stroke-width="2" d="M588.65,-65.45C588.65,-61.84 558.91,-58.91 522.3,-58.91 485.69,-58.91 455.95,-61.84 455.95,-65.45"/>
<text text-anchor="middle" x="522.3" y="-40.2" font-family="Arial" font-size="14.00">CloudTrailBucket</text>
<text text-anchor="middle" x="522.3" y="-23.4" font-family="Arial" font-size="14.00">(AWS::S3::Bucket)</text>
</g>
<!-- S3UsageTrail&#45;&gt;CloudTrailBucket -->
<g id="edge3" class="edge">
<title>S3UsageTrail&#45;&gt;CloudTrailBucket</title>
<path fill="none" stroke="black" d="M455.14,-215.57C444.27,-205.46 434.31,-193.47 428.3,-180 415.27,-150.77 414.04,-136.65 428.3,-108 434.14,-96.27 442.94,-85.97 452.86,-77.11"/>
<polygon fill="black" stroke="black" points="454.79,-80.05 460.25,-70.97 450.32,-74.67 454.79,-80.05"/>
</g>
<!-- CloudTrailBucketPolicy -->
<g id="node7" class="node">
<title>CloudTrailBucketPolicy</title>
<path fill="#e6e6e6" stroke="black" stroke-width="2" d="M595.32,-180C595.32,-180 449.28,-180 449.28,-180 443.28,-180 437.28,-174 437.28,-168 437.28,-168 437.28,-120 437.28,-120 437.28,-114 443.28,-108 449.28,-108 449.28,-108 595.32,-108 595.32,-108 601.32,-108 607.32,-114 607.32,-120 607.32,-120 607.32,-168 607.32,-168 607.32,-174 601.32,-180 595.32,-180"/>
<text text-anchor="middle" x="522.3" y="-148.2" font-family="Arial" font-size="14.00">CloudTrailBucketPolicy</text>
<text text-anchor="middle" x="522.3" y="-131.4" font-family="Arial" font-size="14.00">(AWS::S3::BucketPolicy)</text>
</g>
<!-- S3UsageTrail&#45;&gt;CloudTrailBucketPolicy -->
<g id="edge4" class="edge">
<title>S3UsageTrail&#45;&gt;CloudTrailBucketPolicy</title>
<path fill="none" stroke="black" d="M512.29,-215.7C513.4,-207.93 514.58,-199.57 515.73,-191.43"/>
<polygon fill="black" stroke="black" points="519.18,-192.03 517.11,-181.64 512.25,-191.05 519.18,-192.03"/>
</g>
<!-- CloudTrailBucketPolicy&#45;&gt;CloudTrailBucket -->
<g id="edge5" class="edge">
<title>CloudTrailBucketPolicy&#45;&gt;CloudTrailBucket</title>
<path fill="none" stroke="black" d="M522.3,-107.7C522.3,-99.93 522.3,-91.57 522.3,-83.43"/>
<polygon fill="black" stroke="black" points="525.8,-83.66 522.3,-73.66 518.8,-83.66 525.8,-83.66"/>
</g>
<!-- AthenaDatabase -->
<g id="node8" class="node">
<title>AthenaDatabase</title>
<path fill="#ffcfb3" stroke="black" stroke-width="2" d="M790.44,-65.45C790.44,-69.07 754.07,-72 709.3,-72 664.53,-72 628.16,-69.07 628.16,-65.45 628.16,-65.45 628.16,-6.55 628.16,-6.55 628.16,-2.93 664.53,0 709.3,0 754.07,0 790.44,-2.93 790.44,-6.55 790.44,-6.55 790.44,-65.45 790.44,-65.45"/>
<path fill="none" stroke="black" stroke-width="2" d="M790.44,-65.45C790.44,-61.84 754.07,-58.91 709.3,-58.91 664.53,-58.91 628.16,-61.84 628.16,-65.45"/>
<text text-anchor="middle" x="709.3" y="-40.2" font-family="Arial" font-size="14.00">AthenaDatabase</text>
<text text-anchor="middle" x="709.3" y="-23.4" font-family="Arial" font-size="14.00">(AWS::Glue::Database)</text>
</g>
<!-- AthenaTableCreationLambda -->
<g id="node9" class="node">
<title>AthenaTableCreationLambda</title>
<path fill="#b7e0ff" stroke="black" stroke-width="2" d="M995.75,-72C995.75,-72 820.85,-72 820.85,-72 814.85,-72 808.85,-66 808.85,-60 808.85,-60 808.85,-12 808.85,-12 808.85,-6 814.85,0 820.85,0 820.85,0 995.75,0 995.75,0 1001.75,0 1007.75,-6 1007.75,-12 1007.75,-12 1007.75,-60 1007.75,-60 1007.75,-66 1001.75,-72 995.75,-72"/>
<text text-anchor="middle" x="908.3" y="-40.2" font-family="Arial" font-size="14.00">AthenaTableCreationLambda</text>
<text text-anchor="middle" x="908.3" y="-23.4" font-family="Arial" font-size="14.00">(AWS::Lambda::Function)</text>
</g>
<!-- AthenaTableCreation -->
<g id="node10" class="node">
<title>AthenaTableCreation</title>
<path fill="#e6e6e6" stroke="black" stroke-width="2" d="M827.12,-180C827.12,-180 637.48,-180 637.48,-180 631.48,-180 625.48,-174 625.48,-168 625.48,-168 625.48,-120 625.48,-120 625.48,-114 631.48,-108 637.48,-108 637.48,-108 827.12,-108 827.12,-108 833.12,-108 839.12,-114 839.12,-120 839.12,-120 839.12,-168 839.12,-168 839.12,-174 833.12,-180 827.12,-180"/>
<text text-anchor="middle" x="732.3" y="-148.2" font-family="Arial" font-size="14.00">AthenaTableCreation</text>
<text text-anchor="middle" x="732.3" y="-131.4" font-family="Arial" font-size="14.00">(Custom::AthenaTableCreation)</text>
</g>
<!-- AthenaTableCreation&#45;&gt;CloudTrailBucket -->
<g id="edge8" class="edge">
<title>AthenaTableCreation&#45;&gt;CloudTrailBucket</title>
<path fill="none" stroke="black" d="M662.08,-107.56C641.18,-97 618.2,-85.41 597.02,-74.72"/>
<polygon fill="black" stroke="black" points="598.64,-71.61 588.14,-70.23 595.49,-77.86 598.64,-71.61"/>
</g>
<!-- AthenaTableCreation&#45;&gt;AthenaDatabase -->
<g id="edge7" class="edge">
<title>AthenaTableCreation&#45;&gt;AthenaDatabase</title>
<path fill="none" stroke="black" d="M724.64,-107.7C722.93,-99.84 721.1,-91.38 719.31,-83.15"/>
<polygon fill="black" stroke="black" points="722.79,-82.65 717.25,-73.62 715.95,-84.14 722.79,-82.65"/>
</g>
<!-- AthenaTableCreation&#45;&gt;AthenaTableCreationLambda -->
<g id="edge6" class="edge">
<title>AthenaTableCreation&#45;&gt;AthenaTableCreationLambda</title>
<path fill="none" stroke="black" d="M790.91,-107.7C806.7,-98.19 823.93,-87.81 840.2,-78.01"/>
<polygon fill="black" stroke="black" points="841.59,-81.26 848.35,-73.1 837.98,-75.26 841.59,-81.26"/>
</g>
<!-- S3UsageTable -->
<g id="node11" class="node">
<title>S3UsageTable</title>
<path fill="#ffcfb3" stroke="black" stroke-width="2" d="M786.99,-281.45C786.99,-285.07 746.79,-288 697.3,-288 647.81,-288 607.61,-285.07 607.61,-281.45 607.61,-281.45 607.61,-222.55 607.61,-222.55 607.61,-218.93 647.81,-216 697.3,-216 746.79,-216 786.99,-218.93 786.99,-222.55 786.99,-222.55 786.99,-281.45 786.99,-281.45"/>
<path fill="none" stroke="black" stroke-width="2" d="M786.99,-281.45C786.99,-277.84 746.79,-274.91 697.3,-274.91 647.81,-274.91 607.61,-277.84 607.61,-281.45"/>
<text text-anchor="middle" x="697.3" y="-256.2" font-family="Arial" font-size="14.00">S3UsageTable</text>
<text text-anchor="middle" x="697.3" y="-239.4" font-family="Arial" font-size="14.00">(AWS::DynamoDB::Table)</text>
</g>
</g>
</svg>
